<svg version="1" xmlns="http://www.w3.org/2000/svg" width="624" height="113pt" viewBox="0 0 468 113"><g fill="#c9252b"><path d="M196.074 1.37c-.374.282-5.605.936-11.677 1.496-29.425 2.522-66.883 10.09-86.5 17.655-5.512 2.15-33.068 10.09-43.437 12.612-5.512 1.308-6.82 1.962-6.82 3.363 0 2.055.468 2.148 7.94.467l5.7-1.215-.375 3.176c-.187 1.682-.093 3.083.187 3.083.374 0 3.83-1.588 7.847-3.643 31.572-15.88 70.152-26.716 110.413-31.107 13.638-1.494 65.202-1.4 89.21.094 60.624 3.83 131.992 14.572 189.534 28.584 1.12.28.56-.187-1.12-1.027-4.298-1.87-43.624-11.677-63.24-15.694-40.356-8.22-67.352-11.957-121.438-16.907-8.782-.84-75.572-1.682-76.226-.935z"/><path d="M373.84 30.797c-1.59 2.895-2.15 2.99-7.38 1.307-1.028-.28-.655.374 1.12 1.87l2.71 2.334-2.616 2.802c-1.588 1.682-2.242 2.896-1.588 3.27.56.373 1.027.28 1.027-.187 0-.84 4.017-2.99 5.605-2.99.467 0 1.12.84 1.4 1.87.842 2.8 2.336 2.24 2.336-.842 0-2.147.56-2.8 3.083-3.642l2.99-.934-3.644-.093-3.55-.093.374-3.736c.187-2.054.187-3.736 0-3.736-.093 0-1.027 1.308-1.868 2.803zM40.168 36.12c-3.644 1.402-3.644 4.765 0 4.205 2.242-.28 2.802-.84 2.802-2.616 0-2.336-.374-2.523-2.802-1.59zM28.49 38.363c-2.054.374-7.752 1.12-12.61 1.68-4.857.562-10.37 1.31-12.143 1.59-3.27.56-3.27.56-.935 1.587 1.308.56 6.446 2.99 11.49 5.512 9.995 4.857 11.397 5.23 12.237 2.99.747-1.87.747-2.336-.094-2.056-1.028.374-14.292-5.23-14.292-5.885 0-.56 16.347-2.334 17.935-1.96.746.186 2.988-3.55 2.428-3.924-.187-.093-1.962.093-4.017.467zM29.52 54.804c-.842 2.055 1.213 3.176 3.36 1.868 1.59-1.028 1.59-1.214.095-2.335-2.055-1.495-2.803-1.402-3.456.467zM35.31 57.513c-1.308 1.4-.84 1.96 6.165 6.632 4.11 2.896 10.182 7.286 13.452 9.808 3.176 2.523 5.79 4.297 5.79 3.924 0-1.308-5.79-9.715-6.724-9.715-.467 0-.56-.467-.28-.934.373-.56.28-.84-.187-.748-.84.28-14.573-8.594-15.04-9.715-.467-1.12-1.494-.934-3.176.748z"/></g></svg>