<svg version="1" xmlns="http://www.w3.org/2000/svg" width="624" height="464pt" viewBox="0 0 468 464"><path d="M178.776 7.7c-29.952 7.488-30.888 8.424-25.272 19.656 2.34 4.68 5.616 14.04 7.488 20.592 2.34 10.764.468 13.104-12.636 18.72-7.956 3.276-23.868 14.508-34.632 24.336l-19.656 17.784-18.72-12.636c-10.764-7.02-20.124-11.7-20.592-10.764-.936.936-8.892 13.572-18.252 28.08l-16.848 25.74 12.636 5.616C59.436 157.46 60.84 159.8 53.352 187.88c-3.744 14.04-6.084 32.292-4.68 40.716 1.872 14.04.936 15.444-14.976 20.124-9.36 2.34-20.592 4.68-24.804 4.68-6.552 0-6.552 3.276.468 31.356 4.68 17.784 10.296 31.356 13.104 30.888 35.1-7.488 42.12-7.02 45.396 3.276 1.872 5.616 12.168 21.06 22.932 34.632l20.124 24.336L99.684 393.8c-5.616 8.892-10.764 17.316-10.764 19.188 0 3.276 45.396 32.292 51.012 32.292 1.872 0 7.956-8.424 13.572-18.252l10.296-18.252 21.996 6.552c11.7 3.744 30.888 6.552 41.652 6.552 19.188 0 20.592.936 24.804 17.316 2.808 9.36 3.744 18.72 2.34 21.06-3.276 5.148 11.7 4.68 41.184-1.872 13.572-2.808 25.272-5.616 25.74-6.084.468 0-1.872-10.296-5.616-21.996l-6.552-21.996 24.336-13.572c13.572-7.488 28.548-18.252 33.228-23.868 10.764-12.168 15.912-12.168 30.888-.468 6.552 5.148 14.04 9.36 16.848 9.36 4.68 0 34.632-43.524 34.632-50.544 0-1.872-8.424-7.956-18.252-13.572l-17.784-10.296 6.084-24.804c3.744-13.572 6.552-32.292 6.552-41.652 0-17.784 6.552-22.932 31.824-22.932 12.168 0 13.104-6.552 4.68-42.12l-5.616-24.336-15.912 3.276c-8.424 1.404-18.72 4.212-21.996 5.148-3.744 1.404-8.892-2.34-11.7-8.424-3.276-6.084-14.04-21.528-23.868-34.632-10.296-13.104-18.252-25.74-18.252-27.612 0-1.872 5.148-10.764 11.7-19.188l11.7-14.976-27.144-16.848c-29.484-18.252-24.804-19.656-47.736 10.764-6.552 8.892-8.424 9.36-35.1 2.808-15.444-3.744-33.696-7.02-40.716-7.02-11.232 0-13.572-2.34-18.252-21.06-2.808-11.7-7.488-21.06-10.764-20.592-2.808.468-16.38 3.276-29.952 6.552zm107.172 132.444c36.036 18.72 52.416 43.524 54.756 83.304 4.212 67.392-38.844 114.66-104.364 114.66-59.904 0-105.3-44.46-105.3-102.492 0-82.368 82.836-133.38 154.908-95.472z" fill="#8fb4c7"/></svg>