<svg version="1" xmlns="http://www.w3.org/2000/svg" width="624" height="624" viewBox="0 0 468 468"><path d="M179.32 8.508c-13.55 3.467-25.053 6.934-25.683 7.564-1.26 1.103 4.57 29.152 7.248 34.982 2.364 5.042.946 7.09-9.77 12.606-17.018 8.667-35.454 22.218-47.272 34.194-6.62 6.776-12.764 12.448-13.552 12.448-.787 0-9.454-5.357-19.38-11.818C60.98 92.024 52.472 86.666 52 86.666c-.473.158-5.042 6.933-10.085 15.443-5.2 8.35-11.976 19.38-15.285 24.265l-5.83 8.982 18.752 11.976c10.242 6.618 18.75 12.29 18.75 12.606 0 .156-1.732 5.83-3.938 12.447-4.412 13.394-7.88 34.667-9.455 57.988l-1.104 15.285-9.77 3.152c-5.2 1.576-14.812 4.254-20.957 5.673-6.304 1.575-11.504 3.15-11.504 3.78 0 1.735 12.92 59.25 13.55 59.88.474.473 36.874-8.036 42.704-10.085 1.26-.472 4.097 3.94 7.25 10.873 7.563 16.073 20.01 33.88 33.72 48.376l11.818 12.447-9.77 14.497c-5.515 8.037-10.872 15.758-12.133 17.176-1.103 1.26-2.048 3.152-2.048 4.097 0 .788 5.2 4.727 11.503 8.667 6.145 3.94 17.176 10.715 24.424 15.127l12.92 8.195 5.832-8.982c3.15-5.042 8.666-13.866 12.448-19.697l6.776-10.4 13.867 4.412c16.388 5.358 42.545 9.455 59.248 9.455h11.976l1.577 5.83c7.88 28.837 10.872 37.503 12.92 37.188 4.413-.63 54.207-11.66 54.68-12.29.315-.315-1.576-8.35-4.255-17.963-2.678-9.613-4.885-18.437-4.885-19.697 0-1.26 7.407-6.46 16.388-11.82 20.958-12.29 39.394-25.84 47.903-35.61l6.776-7.722 9.77 5.042c5.358 2.68 13.867 7.25 18.91 9.928 4.884 2.836 9.296 4.727 9.61 4.412 2.05-2.206 30.886-47.43 30.886-48.376-.157-.63-8.982-6.776-19.854-13.552-10.873-6.775-19.382-13.236-18.91-14.18 10.873-24.11 15.128-41.13 16.23-64.292l.946-18.594 5.673-1.576c26.788-7.09 36.4-10.4 36.4-12.45 0-4.096-9.927-49.793-11.188-51.053-.63-.788-10.085.473-21.115 2.68-11.188 2.205-20.8 4.096-21.43 4.096-.788 0-2.837-2.994-4.728-6.776-7.09-13.867-24.74-38.606-36.4-50.582L359.43 92.34l5.99-10.244c3.308-5.672 8.193-14.497 11.03-19.38l5.04-8.983-23.635-15.915c-13.08-8.667-23.95-15.758-24.424-15.758-.314 0-6.775 8.51-14.34 18.75l-13.708 18.753-11.345-3.782c-16.86-5.83-40.34-10.084-57.2-10.556-11.188-.316-15.285-1.103-16.23-2.837-.63-1.103-3.152-10.873-5.673-21.43-3.94-17.018-4.885-19.382-7.722-19.224-1.733.157-14.34 3.15-27.89 6.775zm76.426 118.182c43.49 8.352 78.788 43.65 87.14 87.14 11.345 59.564-27.734 117.71-87.14 129.055-59.564 11.345-117.71-27.734-129.055-87.14-7.09-37.03 4.57-73.745 31.83-100.06 26.474-25.37 61.3-35.77 97.226-28.995z" fill="#8fb4c7"/></svg>