<svg version="1" xmlns="http://www.w3.org/2000/svg" width="624" height="620" viewBox="0 0 468 465"><g fill="#82c9f6"><path d="M391.19 118.466c-7.323 1.607-23.578 5-36.082 7.145l-22.685 3.93-23.757-4.644c-34.832-6.788-40.727-7.502-40.727-4.287 0 3.214 41.976 12.682 61.446 13.575 14.29.714 33.225-1.43 50.73-5.895 9.29-2.322 9.29-2.322 10.36 2.144.715 2.322.536 11.61-.178 20.72-1.43 19.65-4.11 24.115-18.04 30.724-9.647 4.644-10.54 4.644-41.085 4.108-23.58-.357-31.08 0-31.08 1.608 0 2.858 9.823 11.79 20.898 19.113 4.645 3.215 19.114 14.11 31.975 24.472 12.86 10.18 28.76 22.505 35.368 27.507 6.43 4.823 15.898 12.147 21.078 16.076 26.437 20.542 41.8 31.26 45.372 31.26 2.5 0 8.752-21.435 11.253-38.762 3.93-26.614 1.965-64.304-4.823-88.776-2.68-10.003-4.465-12.325-28.58-37.154-14.29-14.47-26.258-26.437-26.972-26.258-.536 0-7.145 1.607-14.47 3.394zm19.65 33.76c0 14.47-.536 26.972-1.25 27.508-.536.715-2.144.358-3.573-.714-1.786-1.608-2.322-8.217-2.322-26.437 0-23.4 1.43-30.366 5.716-27.687.715.536 1.43 12.86 1.43 27.33zm5.537 48.586c1.786 5.716 1.608 7.502-.893 11.432-3.215 5.002-9.11 5.716-13.933 1.965-5.18-3.752-4.286-15.72 1.61-22.508l4.822-5.716 3.215 3.93c1.786 2.143 4.108 6.966 5.18 10.896zM173.803 161.693c-4.466 4.466-7.145 5.716-12.146 5.537-5.895-.178-6.788.536-10.004 7.145-1.964 4.11-5.18 10.36-7.145 13.755-3.215 5.894-4.644 14.29-2.322 14.29.536 0 4.823-3.037 9.467-6.788 11.79-9.646 22.33-16.434 25.365-16.434 1.43 0 3.573-.893 4.466-1.786 1.072-1.072 6.073-2.322 11.075-3.037 5.18-.535 9.287-1.964 9.287-3.036 0-3.395-17.148-15.363-21.97-15.363-.18 0-3.037 2.5-6.074 5.716zM202.74 187.058c-8.395 11.075-20.54 33.94-18.934 35.547 1.43 1.43 21.435 6.43 26.615 6.61 1.61 0 2.145-5.896 2.145-24.116 0-26.973-1.25-29.295-9.824-18.042zM217.924 205.278v24.293l9.467-1.25c10.004-1.25 22.686-4.465 22.686-5.894 0-.357-2.858-6.073-6.252-12.683-9.11-17.148-18.22-28.758-22.328-28.758-3.394 0-3.572 1.25-3.572 24.293zM181.84 187.058c-11.61 4.823-28.222 16.434-28.222 19.65 0 2.678 19.47 13.574 23.936 13.574 1.608 0 4.823-3.93 7.503-9.288 2.68-5.18 6.61-12.504 8.93-16.077 8.218-12.86 5.002-14.825-12.146-7.86zM232.214 184.02c0 .894 3.394 7.146 7.68 13.934 4.288 6.967 8.753 15.183 10.004 18.22 1.43 3.215 2.858 5.895 3.572 5.895 2.858 0 20.185-11.255 21.078-13.577 1.43-3.93-3.036-8.038-17.684-16.255-12.86-7.324-24.65-11.253-24.65-8.217zM44.3 194.024c-3.93.893-8.932 4.11-12.147 7.68-4.466 5.18-5.36 7.682-5.36 15.542v9.467l36.262 35.904c19.827 19.65 38.762 37.154 41.977 38.762 3.215 1.785 8.574 2.857 11.61 2.5 6.43-.537 6.43-.18 3.037-21.257-1.43-9.467-1.608-17.505-.536-26.437 1.43-11.253 1.25-12.682-1.25-12.682-1.608 0-3.752.893-4.645 1.786-3.752 3.75-10.72-1.608-33.94-25.186-12.86-13.22-24.472-24.83-25.9-25.9-1.608-1.25-4.645-1.43-9.11-.18zM144.15 216.174c-7.5 10.896-13.932 26.615-15.54 37.69-.714 5.537-1.07 10.36-.892 10.718.357.357 9.645.714 20.72.714l20.364.18 1.43-7.86c1.606-9.11 5.893-26.26 7.5-30.367.894-2.323-2.143-4.467-12.86-9.826-7.68-3.75-14.47-7.145-15.005-7.323-.536-.357-3.215 2.323-5.716 6.074zM266.51 218.317c-10.54 6.074-11.075 6.788-10.003 11.79.536 2.858 2.5 12.146 4.108 20.542l3.037 15.182H299.2l.534-5.895c1.25-12.146-13.218-46.442-20.184-47.87-.893-.18-6.788 2.678-13.04 6.25zM178.09 235.823c-1.608 5.716-3.394 15.004-4.108 20.72l-1.25 10.36 19.47-.535 19.47-.536.536-17.505.536-17.327h-5.002c-2.68 0-9.467-1.25-14.826-2.68-5.36-1.428-10.36-2.68-10.896-2.68-.715 0-2.5 4.645-3.93 10.183zM242.038 228.32c-3.93 1.43-9.646 2.5-12.86 2.5-10.897.36-11.254.894-11.254 18.22v15.9h18.755c10.36 0 19.29-.18 20.184-.537 3.573-1.072-2.68-39.12-6.43-38.583-.715.178-4.466 1.25-8.396 2.5z"/><path d="M309.38 261.01c.357 10.36 0 12.503-3.572 16.075-5.18 5.18-6.074 5.002-5.36-1.07l.537-4.824-19.113-.535-19.292-.536v5.358c0 6.966-6.966 36.26-9.288 38.94-2.322 2.858-.536 7.68 3.036 7.68 1.43 0 2.68.716 2.68 1.787 0 .894-2.144 1.25-4.823.715-4.644-.715-5.716.357-13.754 13.576-11.43 18.755-20.184 26.793-29.294 26.793-9.824 0-27.687-4.645-37.87-9.825-10.895-5.537-11.43-5.537-9.823.357 3.93 15.72 28.223 37.69 50.015 45.193 9.825 3.394 18.756 4.823 16.612 2.5-1.07-.893 2.68-19.648 5.716-27.508.893-2.5 2.858-8.93 4.287-14.29 2.5-9.29 5.002-11.968 42.87-50.015 22.15-21.97 41.8-40.727 43.943-41.442 1.964-.714 3.572-2.143 3.572-3.036 0-1.965-17.684-18.04-19.827-18.04-1.07 0-1.428 5.357-1.25 12.145zM127.718 272.084c-.715 1.072-.18 6.43.893 12.146 4.645 22.865 22.686 50.194 30.01 45.55 1.786-1.072 7.324-4.108 12.325-6.61l9.11-4.822-4.108-13.04c-2.323-7.145-4.823-17.862-5.538-23.936l-1.25-11.074h-20.186c-11.61 0-20.542.714-21.256 1.786z"/><path d="M173.982 281.908c.714 6.252 2.858 16.79 4.823 23.4 3.215 10.54 4.108 11.61 7.502 10.718 2.143-.715 8.93-1.608 15.183-2.322l11.075-1.072v-42.334H172.73l1.252 11.61zM217.924 291.376v21.077l12.146 1.965c6.61 1.25 13.576 2.322 15.54 2.68 2.86.357 4.288-1.608 7.503-10.718 2.322-6.252 4.644-16.97 5.18-23.757l1.25-12.325h-41.62v21.078zM283.122 320.313c-17.148 17.327-20.9 21.792-18.756 23.22 1.43.894 3.93 1.788 5.36 1.788 3.93 0 45.37-41.977 43.94-44.477-3.393-5.36-9.823-1.43-30.544 19.47zM303.486 324.78c-12.147 12.324-22.33 23.04-22.507 23.756 0 .714 2.857 3.93 6.786 7.324l6.967 5.894 23.22-21.792c12.684-12.147 23.223-22.864 23.223-24.115 0-2.5-11.61-13.397-14.112-13.397-.714 0-11.432 10.003-23.578 22.33zM195.238 317.098c-7.145 1.25-9.467 2.5-9.467 4.823 0 4.466 20.186 33.046 23.758 33.76 2.68.537 3.037-1.785 3.037-20.005 0-23.58 1.43-21.97-17.327-18.577zM217.924 335.318c0 17.505.357 20.72 2.68 20.72 3.75 0 9.645-6.43 18.933-20.9 7.146-10.717 7.503-11.788 4.645-13.932-1.787-1.25-6.967-2.858-11.61-3.572-4.645-.536-9.825-1.43-11.433-1.965-2.86-.894-3.216.892-3.216 19.648zM369.04 322.456c-2.857 3.216-20.54 21.97-39.654 41.8l-34.474 35.903-14.826 4.643c-8.217 2.5-19.828 6.073-25.9 7.68-9.647 2.68-11.255 3.752-12.148 8.218-1.607 7.146 4.645 16.434 14.826 22.33 4.644 2.678 13.22 7.86 18.935 11.61 5.893 3.75 12.502 6.787 14.825 6.787 11.61 0 53.587-18.755 78.416-34.832 14.65-9.645 48.23-43.763 58.412-59.303 4.644-7.145 8.395-13.755 8.395-14.648 0-1.072-8.216-7.68-18.22-14.826-10.18-7.145-18.755-13.397-19.29-13.933-3.395-4.108-10.897-7.145-16.97-7.145-5.895 0-8.217 1.072-12.326 5.716zM168.444 327.458c-5.18 3.037-9.467 6.252-9.467 7.145 0 2.68 15.183 11.968 26.258 16.076 11.79 4.286 13.04 4.465 13.04.357-.18-4.287-15.005-27.866-18.04-28.58-1.43-.18-6.79 2.143-11.79 5z"/><path d="M320.098 347.643c-22.15 22.15-24.65 26.436-19.828 33.403 1.43 2.143 5.895-1.608 23.936-20.364 19.47-20.184 22.328-23.935 22.328-29.116 0-3.572-.893-5.894-2.322-5.894-1.25 0-11.968 9.824-24.114 21.97zM250.255 353.18c-1.965 2.322-7.324 18.04-7.324 21.97 0 1.073 2.502 2.502 5.36 3.216 8.038 1.787 15.72 9.11 17.863 16.97l1.786 6.966 11.252-3.75c15.184-5.002 15.184-5.18 13.576-16.256-1.43-10.54-4.823-18.398-10.003-23.043-8.395-7.68-28.223-11.432-32.51-6.073z"/></g></svg>