<svg version="1" xmlns="http://www.w3.org/2000/svg" width="624" height="467pt" viewBox="0 0 468 467"><path d="M378.687 203.17c0 19.29-.714 25.9-3.572 34.474-6.967 20.006-35.547 62.877-59.84 89.67-11.968 13.04-40.905 35.19-63.59 48.587-8.754 5.18-15.9 10.182-15.9 10.897 0 1.43 58.59 58.053 66.807 64.305 4.645 3.75 5.716 3.93 13.397 1.787 31.973-8.397 79.31-44.122 106.64-80.383 13.04-17.506 25.9-41.084 32.152-59.483l4.287-12.682-6.61-11.79c-7.68-13.754-69.664-106.818-72.165-108.247-.893-.714-1.608 8.217-1.608 22.864z" fill="#82c9f6"/></svg>