<svg xmlns="http://www.w3.org/2000/svg" viewBox="0 0 274.667 289.331"><circle fill="#D20000" cx="138.083" cy="151.584" r="123.25"/><path fill="#B20000" d="M253.554 194.77L141.666 79.334s-2.693-2.11-6.333-3.25-16.25-2.25-18.25-1.5-2.5 5.25-1.25 6.5 7.25 2.75 9.5 1.5 7-.25 8 2.75 1.75 14.25 1 16-2.25-.75-2.25-.75-29-26.75-30.75-28-9.5 0-9.5 0-16 4.25-17 4.75-6.25 14-6.25 14 11.75 32.75 12.75 33 12 9.63 13 9.065 7.5 6.267 7.5 6.267l1.25 27.417 8.25 17.25 23.75 19 3 1.75-9 9.25-7.09-3.5-4.41 3.5-8.25-3.25s-3.25 2-3.5 3.25.5 1.5 2 3.75 59 52.5 59 52.5 21.75-3 40-16.75 21.5-17.75 29.25-28 17.47-31.064 17.47-31.064z"/><path fill="none" stroke="#FFF" stroke-width="3" d="M104.333 216.084c2.25-3.25 5.25-6.5 8.25-3.5s6.82 2.875 9.41-1.188 4.09 5.938 6.34 3.438 10.75-16.25 11-10.25.166 23.5 2.333 19 3.917-16.5 7.667-12.75 5.25 4.25 8.5 1 4-3.5 6.75-.75 4.5 4 6-2 7.25-30 7.75-21 3.75 57 4.25 41.5 1-16 3.25-18.5 3.5-4.938 6.5-1.72 3.75 3.282 6.25 0 2.25-2.718 5.75 0 4.75 2.782 6.5 0 4.5-.718 6.25 0"/><path fill="#FFF" d="M85.083 71.084s3.25-2.5 5.5-2.25 4 2.25 3.75 4.5-1 3.75-2.75 4.25-6.5 0-6.5 0-4-.75-8.25 2.5-4.75 6.5-5.25 12.5 2.75 15 6.25 21.25 6.25 9.5 6.25 9.5 1.5-1.25 2.5 0 7.5 9.75 15.75 8.75 14.25-8 15-9 1.5.5 1.5.5 6.5-8 7.75-11.75 4.75-12 4.5-19.75.25-8.75-3.5-10.75-11.25-4.25-11.25-4.25-1.75 2-4.25 1.25-3.25-3-3-5 2.75-5.035 4.75-4.518 4.75 2.268 4.75 2.268 12 0 15.25 6.5 5.5 9.75 4.25 19.25-4.25 16-7.25 21-6 9-6 9 .75 2.25-1.25 3.75-4.25 4.5-7.75 6.75-10.85 4.5-10.85 4.5-.85 17.5 0 21.25 2.1 21.5 20.85 23.75 24.5-5.5 26.75-10.25 4.5-4 4.75-14-.25-17.5 0-17.5-11.5-2.75-13.75-10.75-.25-17.25 4.75-20.75 17.08-4.485 23.25.25c6.842 5.25 9.81 16.883 4.25 24-6.25 8-12.508 7.275-12.508 7.275l-.492 1.474s.5 20.75-.5 24.5-5.5 16-16.5 20-19 5.75-30.25 0-12.5-10-14.75-15.25-1.75-11.25-2.25-15.75 0-17.75 0-17.75-5.5-2-10-4.75-8.75-6.75-9.5-7.75.5-2.5.5-2.5-5.103-6.25-8.05-11.25-5.7-17.25-6.2-21.75 1.25-12.75 3.25-15.25 7.5-6.75 9.75-7 6.75-1 6.75-1z"/><circle fill="#FFF" cx="160" cy="127.167" r="18.333"/><circle fill="#D20000" cx="160.667" cy="127.167" r="12.5"/></svg>