<svg version="1" xmlns="http://www.w3.org/2000/svg" width="624" height="620" viewBox="0 0 468 465"><g fill="#D20000"><path d="M195.953 3.43c-43.05 6.61-89.67 29.83-122.716 60.912-65.2 61.27-89.85 158.44-61.805 242.574 24.293 72.7 76.63 124.86 150.225 150.403l19.648 6.787 47.872.536c54.48.714 61.27-.18 91.278-12.325 38.762-15.54 77.166-44.478 101.102-76.452 18.935-25.187 38.405-70.2 43.764-101.64 3.395-19.47 3.395-59.838 0-79.31-3.393-20.183-13.396-48.406-24.47-69.484C400.657 48.087 320.097.037 232.213.752 220.96.93 204.704 2 195.954 3.43zM365.29 78.632c36.083 9.824 45.37 13.04 48.23 16.97 3.75 5.358 3.393 7.502-1.787 13.575-5.36 6.43-10.896 8.038-50.73 14.47-22.507 3.75-32.688 4.643-36.618 3.57-3.037-.892-17.506-3.57-32.153-6.072-28.223-4.466-34.832-7.324-36.975-15.362-2.323-9.288 6.787-18.22 21.613-21.435 3.394-.715 12.325-2.68 19.65-4.466 38.582-8.752 41.083-8.93 68.77-1.25zm-168.623 4.466c6.788 8.216 3.93 18.934-6.61 24.293-6.25 3.216-15.54-2.5-17.504-10.717-1.965-7.502.893-15.004 5.894-16.255 7.86-2.143 14.826-1.072 18.22 2.68zm-39.12 36.975c26.438 26.794 27.688 29.652 16.613 40.727-5.18 5.18-7.323 6.252-12.503 5.537-5.717-.714-6.252-.178-9.646 7.503-2.143 4.465-5.715 9.467-8.216 11.253-5.18 3.75-5.537 3.037-1.608-4.287 2.5-4.823 2.5-5.895 0-9.467-1.43-2.323-6.787-6.79-11.79-10.004-8.394-5.36-11.252-6.252-26.614-7.324-9.467-.714-20.9-1.965-25.544-2.5-6.788-1.072-10.896-.358-21.97 3.572-15.184 5.537-18.757 9.467-14.648 15.72 4.108 6.072 60.554 62.875 66.09 66.448 6.253 3.93 6.61 8.93.537 7.324-4.287-1.072-69.128-64.484-72.7-70.915-2.5-4.822-1.965-11.61 1.607-15.718 1.786-2.144 16.612-8.753 36.083-16.255 43.942-16.79 41.262-15.183 40.012-23.58-1.073-6.072-.537-7.322 6.072-13.932 4.11-4.108 8.753-7.145 11.254-7.145 2.858 0 10.717 6.788 26.972 23.043zm31.797.18c0 6.787-6.43 9.466-10.718 4.464-3.394-4.108 2.68-10.538 7.324-7.86 1.965.894 3.394 2.502 3.394 3.395zm221.496 31.794c0 14.648-.536 27.15-1.25 27.687-.536.715-2.144.358-3.573-.714-1.786-1.608-2.322-8.038-2.322-24.83 0-24.292.714-28.58 4.644-28.58 1.964 0 2.5 5.002 2.5 26.437zM298.305 130.79c7.324 1.073 18.935 2.68 25.544 3.752 10.36 1.608 16.075 1.072 38.225-2.68 14.47-2.322 26.972-3.93 27.866-3.215 2.86 1.787-.178 37.512-3.572 42.87-1.608 2.323-6.966 6.43-11.968 9.11-8.753 4.645-10.003 4.823-38.583 4.823-35.368 0-43.05-2.143-51.802-13.933-5.18-6.966-5.358-8.038-5.358-25.9 0-16.79.357-18.4 3.215-17.506 1.607.537 9.11 1.788 16.433 2.68zm-206.49 30.367c4.643 5.002 3.035 14.112-2.86 18.577-4.822 3.573-5.18 3.573-11.253.715-5.358-2.502-6.252-3.752-6.252-9.29 0-11.61 13.22-18.04 20.364-10.003zm35.903 6.43c3.215 3.037 4.465 6.253 4.465 11.254 0 16.613-22.864 20.9-29.294 5.54-6.61-15.72 13.038-28.76 24.828-16.792zm107.89 7.146c14.11 3.394 21.792 6.966 33.224 15.362 14.826 10.717 23.222 20.542 30.01 34.474 7.86 16.433 10.002 23.757 10.538 38.047.357 9.288-.178 11.61-3.036 13.754-3.216 2.323-3.752 2.323-4.466-1.25-1.072-3.75-1.965-3.93-20.542-3.93h-19.65l-.178 6.253c-.178 7.86-5.18 30.01-8.216 36.44-1.965 4.465-1.787 5.358 2.143 8.395 2.5 1.786 3.573 3.394 2.5 3.394-.892 0-2.857-1.072-4.107-2.322-2.68-2.5-4.645-.358-14.47 15.72-8.573 13.93-21.077 25.9-27.15 25.9-8.932 0-29.116-5.538-41.8-11.61-21.077-10.183-41.44-35.19-48.585-59.84-3.394-11.076-4.287-27.33-2.144-40.192 2.322-15.898 13.396-39.12 23.578-49.48 8.217-8.395 25.008-20.363 35.368-25.185 14.11-6.61 38.583-8.217 56.982-3.93zm177.733 19.47c4.288 9.29 3.752 17.863-1.428 20.542-5.36 2.858-11.254.18-12.862-5.895-1.25-5.358 5.18-20.72 8.753-20.72 1.43 0 3.93 2.68 5.538 6.073zm-310.81 5.895c.716 1.607 0 4.108-1.606 5.716-2.322 2.5-3.037 2.5-5.36 0-3.393-3.394-1.785-8.753 2.68-8.753 1.787 0 3.75 1.43 4.287 3.038zm252.757 73.415c7.324 5.36 15.898 17.684 18.22 25.722 3.75 13.933 2.68 15.54-39.298 59.66l-38.94 41.085-21.258 6.61c-28.937 8.752-30.366 9.11-36.44 6.608-10.18-4.108-9.645-15.004 1.965-48.23l5.18-15.182 38.94-38.94c21.258-21.435 40.37-39.834 42.335-40.727 5.716-2.68 24.115-.537 29.295 3.393z"/><path d="M178.09 85.956c-3.75 4.108-3.93 9.11-.18 14.29 5.54 8.038 18.58 3.036 18.58-7.145 0-9.11-12.327-13.932-18.4-7.144zM77.166 163.48c-3.572 3.572-2.68 11.79 1.608 13.932 4.644 2.5 12.325-1.965 12.325-7.145 0-6.966-9.11-11.61-13.934-6.788zM109.32 170.803c-7.682 8.217-3.038 19.113 8.037 19.113 10.182 0 15.005-12.325 7.68-19.65-4.822-4.822-11.074-4.465-15.718.537zM188.093 184.736c-12.146 3.75-33.224 17.148-34.117 21.614-.536 2.858 18.22 13.932 23.578 13.932 1.608 0 4.823-3.93 7.503-9.467 2.68-5 7.502-13.397 10.717-18.398 8.753-13.22 8.93-13.04-7.68-7.68zM203.276 186.7c-7.502 10.004-19.29 30.546-19.29 33.76 0 3.038 3.57 4.288 22.863 7.86l5.715 1.25V205.28c0-26.794-1.25-29.295-9.29-18.577zM217.924 205.1c0 27.33-1.43 25.364 16.97 22.15 16.61-2.86 16.61-2.86 9.11-16.97-9.29-17.685-18.22-29.295-22.508-29.295-3.394 0-3.572 1.25-3.572 24.114zM231.5 184.736c.714 1.43 4.286 6.966 7.68 12.325 3.573 5.538 8.038 13.398 9.825 17.506 2.5 5.538 4.287 7.324 6.252 6.61 5.18-1.965 21.613-12.326 21.613-13.576 0-2.322-12.86-11.968-23.042-17.505-11.79-6.074-24.83-9.29-22.33-5.36zM144.866 214.745c-9.825 13.576-20.364 45.014-17.148 50.194.714 1.07 10.003 1.785 21.435 1.785h20.184l1.25-9.467c1.073-8.395 4.645-23.757 7.324-30.366.537-1.787-3.392-4.645-13.038-9.468-7.68-3.75-14.47-7.145-15.005-7.502-.714-.18-3.036 1.786-5 4.823zM265.974 218.675l-11.79 7.145 2.502 7.323c1.25 3.93 3.393 13.04 4.465 20.364l2.145 13.397 18.755-.536 18.935-.536-.536-7.145c-1.25-15.362-14.47-45.014-20.9-46.62-.893-.36-7.145 2.678-13.576 6.608zM177.733 236.716c-1.608 6.252-3.037 15.183-3.215 20.185l-.358 8.932h37.512l.536-17.505.536-17.327h-5.002c-2.68 0-9.467-1.25-14.826-2.68-5.36-1.428-10.36-2.68-10.896-2.68-.715 0-2.5 5.003-4.287 11.076z"/><path d="M242.038 228.32c-3.93 1.43-10.896 2.5-15.54 2.5l-8.574.18V266.725h41.62l-1.072-10.36c-.893-11.254-6.252-30.902-8.038-30.545-.715.178-4.466 1.25-8.396 2.5zM127.718 279.586c2.322 16.97 11.074 35.725 22.506 47.515 5.002 5.36 5.895 5.717 8.575 3.395 1.606-1.43 7.144-4.823 12.324-7.324 7.502-3.75 9.288-5.536 8.395-7.86-3.93-9.11-7.86-23.934-8.932-33.938l-1.25-11.074H126.466l1.25 9.288zM173.982 281.908c.714 6.252 2.858 16.79 4.823 23.222l3.572 11.79 5.716-1.25c3.215-.716 9.825-1.61 14.648-2.323l8.932-1.072.536-21.078.536-20.9H172.73l1.252 11.61zM217.924 291.733v21.435h5c2.86 0 9.468 1.25 14.65 2.858 8.93 2.68 9.823 2.68 11.967-.357 3.394-4.824 8.04-21.794 9.11-34.298l.894-11.074h-41.62v21.435zM196.667 316.92c-5.36.892-10.18 2.143-10.717 2.5-2.68 2.68 19.47 36.618 24.114 36.618 1.965 0 2.5-3.75 2.5-20.542 0-23.22 1.43-21.435-15.897-18.577zM217.924 335.496c0 21.435.893 23.4 7.502 18.22 3.93-3.037 21.078-28.223 21.078-30.902 0-1.25-4.287-3.037-10.182-4.287-5.716-1.072-12.146-2.322-14.29-2.858-4.108-.716-4.108-.537-4.108 19.826zM168.444 327.458c-5.18 3.037-9.467 6.252-9.467 7.145 0 4.108 23.936 16.612 36.618 18.934l6.967 1.25-3.394-5.18c-1.786-2.857-6.252-10.002-10.003-15.897-3.573-5.895-7.502-10.896-8.93-11.254-1.43-.178-6.79 2.144-11.79 5.002zM282.408 321.027c-22.15 22.15-23.222 24.294-12.86 24.294 2.857 0 44.834-40.548 46.263-44.656.358-1.072-1.964-1.786-5.358-1.786-5.18 0-8.574 2.68-28.044 22.15zM302.95 325.493l-23.043 23.043 6.788 6.073c3.75 3.214 7.323 5.894 8.038 5.894 2.322 0 46.443-42.513 46.443-44.835 0-2.145-11.61-13.22-13.933-13.22-.715 0-11.61 10.36-24.293 23.043zM320.098 347.643c-22.15 22.328-23.757 25.007-20.185 34.117 1.072 2.68 5.002-.536 23.936-20.542 19.648-20.542 22.684-24.47 22.684-29.652 0-3.572-.893-5.894-2.322-5.894-1.25 0-11.968 9.824-24.114 21.97zM250.255 353.18c-1.965 2.322-7.324 18.04-7.324 21.97 0 1.073 2.502 2.502 5.36 3.216 8.038 1.787 15.72 9.11 17.863 16.97l1.786 6.966 11.252-3.75c15.184-5.002 15.184-5.18 13.576-16.256-1.43-10.54-4.823-18.398-10.003-23.043-8.395-7.68-28.223-11.432-32.51-6.073z"/></g><g fill="#B20000"><path d="M391.19 118.466c-7.323 1.607-23.578 5-36.082 7.145l-22.685 3.93-23.757-4.644c-34.832-6.788-40.727-7.502-40.727-4.287 0 3.214 41.976 12.682 61.446 13.575 14.29.714 33.225-1.43 50.73-5.895 9.29-2.322 9.29-2.322 10.36 2.144.715 2.322.536 11.61-.178 20.72-1.43 19.65-4.11 24.115-18.04 30.724-9.647 4.644-10.54 4.644-41.085 4.108-23.58-.357-31.08 0-31.08 1.608 0 2.858 9.823 11.79 20.898 19.113 4.645 3.215 19.114 14.11 31.975 24.472 12.86 10.18 28.76 22.505 35.368 27.507 6.43 4.823 15.898 12.147 21.078 16.076 26.437 20.542 41.8 31.26 45.372 31.26 2.5 0 8.752-21.435 11.253-38.762 3.93-26.614 1.965-64.304-4.823-88.776-2.68-10.003-4.465-12.325-28.58-37.154-14.29-14.47-26.258-26.437-26.972-26.258-.536 0-7.145 1.607-14.47 3.394zm19.65 33.76c0 14.47-.536 26.972-1.25 27.508-.536.715-2.144.358-3.573-.714-1.786-1.608-2.322-8.217-2.322-26.437 0-23.4 1.43-30.366 5.716-27.687.715.536 1.43 12.86 1.43 27.33zm5.537 48.586c1.786 5.716 1.608 7.502-.893 11.432-3.215 5.002-9.11 5.716-13.933 1.965-5.18-3.752-4.286-15.72 1.61-22.508l4.822-5.716 3.215 3.93c1.786 2.143 4.108 6.966 5.18 10.896zM173.803 161.693c-4.466 4.466-7.145 5.716-12.146 5.537-5.895-.178-6.788.536-10.004 7.145-1.964 4.11-5.18 10.36-7.145 13.755-3.215 5.894-4.644 14.29-2.322 14.29.536 0 4.823-3.037 9.467-6.788 11.79-9.646 22.33-16.434 25.365-16.434 1.43 0 3.573-.893 4.466-1.786 1.072-1.072 6.073-2.322 11.075-3.037 5.18-.535 9.287-1.964 9.287-3.036 0-3.395-17.148-15.363-21.97-15.363-.18 0-3.037 2.5-6.074 5.716zM202.74 187.058c-8.395 11.075-20.54 33.94-18.934 35.547 1.43 1.43 21.435 6.43 26.615 6.61 1.61 0 2.145-5.896 2.145-24.116 0-26.973-1.25-29.295-9.824-18.042zM217.924 205.278v24.293l9.467-1.25c10.004-1.25 22.686-4.465 22.686-5.894 0-.357-2.858-6.073-6.252-12.683-9.11-17.148-18.22-28.758-22.328-28.758-3.394 0-3.572 1.25-3.572 24.293zM181.84 187.058c-11.61 4.823-28.222 16.434-28.222 19.65 0 2.678 19.47 13.574 23.936 13.574 1.608 0 4.823-3.93 7.503-9.288 2.68-5.18 6.61-12.504 8.93-16.077 8.218-12.86 5.002-14.825-12.146-7.86zM232.214 184.02c0 .894 3.394 7.146 7.68 13.934 4.288 6.967 8.753 15.183 10.004 18.22 1.43 3.215 2.858 5.895 3.572 5.895 2.858 0 20.185-11.255 21.078-13.577 1.43-3.93-3.036-8.038-17.684-16.255-12.86-7.324-24.65-11.253-24.65-8.217zM44.3 194.024c-3.93.893-8.932 4.11-12.147 7.68-4.466 5.18-5.36 7.682-5.36 15.542v9.467l36.262 35.904c19.827 19.65 38.762 37.154 41.977 38.762 3.215 1.785 8.574 2.857 11.61 2.5 6.43-.537 6.43-.18 3.037-21.257-1.43-9.467-1.608-17.505-.536-26.437 1.43-11.253 1.25-12.682-1.25-12.682-1.608 0-3.752.893-4.645 1.786-3.752 3.75-10.72-1.608-33.94-25.186-12.86-13.22-24.472-24.83-25.9-25.9-1.608-1.25-4.645-1.43-9.11-.18zM144.15 216.174c-7.5 10.896-13.932 26.615-15.54 37.69-.714 5.537-1.07 10.36-.892 10.718.357.357 9.645.714 20.72.714l20.364.18 1.43-7.86c1.606-9.11 5.893-26.26 7.5-30.367.894-2.323-2.143-4.467-12.86-9.826-7.68-3.75-14.47-7.145-15.005-7.323-.536-.357-3.215 2.323-5.716 6.074zM266.51 218.317c-10.54 6.074-11.075 6.788-10.003 11.79.536 2.858 2.5 12.146 4.108 20.542l3.037 15.182H299.2l.534-5.895c1.25-12.146-13.218-46.442-20.184-47.87-.893-.18-6.788 2.678-13.04 6.25zM178.09 235.823c-1.608 5.716-3.394 15.004-4.108 20.72l-1.25 10.36 19.47-.535 19.47-.536.536-17.505.536-17.327h-5.002c-2.68 0-9.467-1.25-14.826-2.68-5.36-1.428-10.36-2.68-10.896-2.68-.715 0-2.5 4.645-3.93 10.183zM242.038 228.32c-3.93 1.43-9.646 2.5-12.86 2.5-10.897.36-11.254.894-11.254 18.22v15.9h18.755c10.36 0 19.29-.18 20.184-.537 3.573-1.072-2.68-39.12-6.43-38.583-.715.178-4.466 1.25-8.396 2.5z"/><path d="M309.38 261.01c.357 10.36 0 12.503-3.572 16.075-5.18 5.18-6.074 5.002-5.36-1.07l.537-4.824-19.113-.535-19.292-.536v5.358c0 6.966-6.966 36.26-9.288 38.94-2.322 2.858-.536 7.68 3.036 7.68 1.43 0 2.68.716 2.68 1.787 0 .894-2.144 1.25-4.823.715-4.644-.715-5.716.357-13.754 13.576-11.43 18.755-20.184 26.793-29.294 26.793-9.824 0-27.687-4.645-37.87-9.825-10.895-5.537-11.43-5.537-9.823.357 3.93 15.72 28.223 37.69 50.015 45.193 9.825 3.394 18.756 4.823 16.612 2.5-1.07-.893 2.68-19.648 5.716-27.508.893-2.5 2.858-8.93 4.287-14.29 2.5-9.29 5.002-11.968 42.87-50.015 22.15-21.97 41.8-40.727 43.943-41.442 1.964-.714 3.572-2.143 3.572-3.036 0-1.965-17.684-18.04-19.827-18.04-1.07 0-1.428 5.357-1.25 12.145zM127.718 272.084c-.715 1.072-.18 6.43.893 12.146 4.645 22.865 22.686 50.194 30.01 45.55 1.786-1.072 7.324-4.108 12.325-6.61l9.11-4.822-4.108-13.04c-2.323-7.145-4.823-17.862-5.538-23.936l-1.25-11.074h-20.186c-11.61 0-20.542.714-21.256 1.786z"/><path d="M173.982 281.908c.714 6.252 2.858 16.79 4.823 23.4 3.215 10.54 4.108 11.61 7.502 10.718 2.143-.715 8.93-1.608 15.183-2.322l11.075-1.072v-42.334H172.73l1.252 11.61zM217.924 291.376v21.077l12.146 1.965c6.61 1.25 13.576 2.322 15.54 2.68 2.86.357 4.288-1.608 7.503-10.718 2.322-6.252 4.644-16.97 5.18-23.757l1.25-12.325h-41.62v21.078zM283.122 320.313c-17.148 17.327-20.9 21.792-18.756 23.22 1.43.894 3.93 1.788 5.36 1.788 3.93 0 45.37-41.977 43.94-44.477-3.393-5.36-9.823-1.43-30.544 19.47zM303.486 324.78c-12.147 12.324-22.33 23.04-22.507 23.756 0 .714 2.857 3.93 6.786 7.324l6.967 5.894 23.22-21.792c12.684-12.147 23.223-22.864 23.223-24.115 0-2.5-11.61-13.397-14.112-13.397-.714 0-11.432 10.003-23.578 22.33zM195.238 317.098c-7.145 1.25-9.467 2.5-9.467 4.823 0 4.466 20.186 33.046 23.758 33.76 2.68.537 3.037-1.785 3.037-20.005 0-23.58 1.43-21.97-17.327-18.577zM217.924 335.318c0 17.505.357 20.72 2.68 20.72 3.75 0 9.645-6.43 18.933-20.9 7.146-10.717 7.503-11.788 4.645-13.932-1.787-1.25-6.967-2.858-11.61-3.572-4.645-.536-9.825-1.43-11.433-1.965-2.86-.894-3.216.892-3.216 19.648zM369.04 322.456c-2.857 3.216-20.54 21.97-39.654 41.8l-34.474 35.903-14.826 4.643c-8.217 2.5-19.828 6.073-25.9 7.68-9.647 2.68-11.255 3.752-12.148 8.218-1.607 7.146 4.645 16.434 14.826 22.33 4.644 2.678 13.22 7.86 18.935 11.61 5.893 3.75 12.502 6.787 14.825 6.787 11.61 0 53.587-18.755 78.416-34.832 14.65-9.645 48.23-43.763 58.412-59.303 4.644-7.145 8.395-13.755 8.395-14.648 0-1.072-8.216-7.68-18.22-14.826-10.18-7.145-18.755-13.397-19.29-13.933-3.395-4.108-10.897-7.145-16.97-7.145-5.895 0-8.217 1.072-12.326 5.716zM168.444 327.458c-5.18 3.037-9.467 6.252-9.467 7.145 0 2.68 15.183 11.968 26.258 16.076 11.79 4.286 13.04 4.465 13.04.357-.18-4.287-15.005-27.866-18.04-28.58-1.43-.18-6.79 2.143-11.79 5z"/><path d="M320.098 347.643c-22.15 22.15-24.65 26.436-19.828 33.403 1.43 2.143 5.895-1.608 23.936-20.364 19.47-20.184 22.328-23.935 22.328-29.116 0-3.572-.893-5.894-2.322-5.894-1.25 0-11.968 9.824-24.114 21.97zM250.255 353.18c-1.965 2.322-7.324 18.04-7.324 21.97 0 1.073 2.502 2.502 5.36 3.216 8.038 1.787 15.72 9.11 17.863 16.97l1.786 6.966 11.252-3.75c15.184-5.002 15.184-5.18 13.576-16.256-1.43-10.54-4.823-18.398-10.003-23.043-8.395-7.68-28.223-11.432-32.51-6.073z"/></g></svg>