<svg version="1" xmlns="http://www.w3.org/2000/svg" width="624" height="467pt" viewBox="0 0 468 467"><g fill="#8fdcff"><path d="M206.313 1.858C135.04 12.754 76.988 48.478 39.476 104.388 11.432 146.367-1.25 191.202.536 241.932c1.072 27.33 3.93 44.122 11.432 66.093 35.904 105.746 142.9 172.017 253.65 157.012 14.11-1.786 39.654-7.68 46.084-10.717 1.965-.715 8.04-3.216 13.576-5.18 5.537-1.965 16.79-7.86 25.008-12.862 8.216-5 17.148-10.18 20.006-11.61 2.68-1.43 7.86-5.36 11.432-8.753 3.394-3.394 6.788-6.073 7.502-6.073 1.43 0 21.614-20.185 21.614-21.614 0-.536 2.68-3.93 5.716-7.324 8.574-9.11 36.44-57.16 38.047-65.734.18-.536 1.072-2.858 2.144-5.36 5-11.967 11.253-53.587 11.253-75.915 0-109.32-75.56-202.92-183.985-227.927-14.826-3.572-64.484-6.073-77.702-4.108zM179.698 122.43c20.006 3.752 41.262 17.506 50.908 33.225l4.11 6.43 2.678-4.287c5.537-8.752 23.043-24.293 32.51-28.937 31.08-14.646 66.806-8.037 89.67 16.435 17.148 18.577 21.97 34.117 20.364 65.198-1.25 21.614-3.037 29.83-9.468 42.513-22.864 45.014-69.664 95.03-113.963 121.823-19.65 11.788-20.542 11.788-39.476.892-22.506-12.86-40.548-27.15-60.375-47.514-28.223-29.116-40.727-46.086-57.34-78.24-7.68-14.825-10.895-34.652-9.466-57.516 1.964-32.69 24.65-60.376 56.445-68.77 14.11-3.574 19.47-3.752 33.403-1.252z"/><path d="M265.08 191.916c-3.214 1.25-6.608 9.824-18.576 45.907-8.038 24.293-15.183 44.835-15.898 45.55-.714.714-7.86-12.147-16.076-28.76-14.648-29.83-15.005-30.187-19.292-28.222-3.036 1.43-7.323 7.86-14.11 21.257l-9.647 19.292h-37.51v10.716h18.577c10.18 0 19.827.536 21.435 1.072 1.965.715 5-3.572 12.146-17.862 5.18-10.36 9.825-18.935 10.36-18.935.536 0 7.324 13.398 15.005 29.653 10.36 21.614 15.362 30.188 18.577 31.617 3.037 1.43 4.466 1.43 5.36 0 .714-1.25 7.68-21.435 15.54-45.014 7.86-23.757 14.825-43.05 15.36-43.05.537 0 3.574 11.255 6.79 25.01 3.214 13.575 6.966 25.72 8.216 26.793 1.43 1.25 10.182 1.785 23.4 1.428l21.256-.536.536-5.002.536-4.822h-38.94l-6.61-28.223c-3.75-15.362-7.323-30.367-8.038-33.225-1.43-6.073-3.036-6.788-8.395-4.644z"/></g><path d="M378.687 203.17c0 19.29-.714 25.9-3.572 34.474-6.967 20.006-35.547 62.877-59.84 89.67-11.968 13.04-40.905 35.19-63.59 48.587-8.754 5.18-15.9 10.182-15.9 10.897 0 1.43 58.59 58.053 66.807 64.305 4.645 3.75 5.716 3.93 13.397 1.787 31.973-8.397 79.31-44.122 106.64-80.383 13.04-17.506 25.9-41.084 32.152-59.483l4.287-12.682-6.61-11.79c-7.68-13.754-69.664-106.818-72.165-108.247-.893-.714-1.608 8.217-1.608 22.864z" fill="#82c9f6"/></svg>