<svg version="1" xmlns="http://www.w3.org/2000/svg" width="624" height="620" viewBox="0 0 468 465"><g fill="#8fdcff"><path d="M208.1 2.716C178.446 5.93 142.72 17.9 116.463 33.44 61.626 65.95 24.83 114.714 8.038 177.59c-22.864 85.384 8.396 179.877 78.596 237.395 25.543 20.9 51.087 34.117 84.847 43.763L193.274 465h39.834c52.695 0 69.307-3.573 108.07-23.4 55.194-28.402 92.348-71.45 113.07-131.11 10.895-31.26 12.86-43.23 12.86-75.918 0-32.688-1.965-44.477-12.86-75.916C424.593 72.916 347.962 12.362 256.863 2.36c-19.65-1.966-28.4-1.966-48.765.356zm140.042 70.38c6.43 1.428 13.397 3.392 15.362 4.286 1.965.893 10.36 3.215 18.756 5.358 28.758 7.145 28.58 6.967 32.152 13.04 4.466 7.145 4.466 7.145-.893 13.397-3.573 4.287-7.324 6.073-18.042 8.574-10.182 2.502-12.682 3.574-9.824 4.645 5.18 1.787 6.25 8.04 5 29.295-1.07 18.756-3.036 25.722-7.144 25.722-1.25 0-3.93 1.25-5.895 2.858-1.786 1.43-2.322 2.322-1.07 1.608 1.07-.536 2.142-.536 2.142 0 0 2.322-13.218 6.43-17.327 5.36-2.858-.716-3.93-.36-3.215.892.715 1.25-7.145 1.786-23.936 1.786-16.613 0-25.187-.715-25.187-1.965 0-.892-.715-1.428-1.608-.892-2.858 1.786-15.54-5.716-22.15-13.04l-6.608-7.323v-20.542c0-20.364 0-20.542 4.108-19.65 6.788 1.43 39.298 6.43 48.765 7.324 4.823.358 15.004-.535 22.328-1.964 12.504-2.68 24.83-4.645 29.83-5.002 3.752-.178 2.323-2.5-1.964-3.75-2.322-.536-12.325.536-22.15 2.5-24.293 4.645-28.937 4.645-50.194.18-10.18-2.144-20.185-3.395-22.328-2.86-2.858.894-3.215.716-1.43-.535 1.787-1.25-.356-2.143-7.144-3.036-19.47-2.502-26.973-9.647-23.043-21.615 2.68-7.86 7.324-10.54 26.973-15.005 9.288-2.143 19.65-4.823 23.042-5.894 7.146-2.144 24.65-6.074 28.402-6.43 1.43-.18 7.86 1.07 14.29 2.68zm-151.832 8.93c10.36 8.753 6.073 23.22-8.038 26.794-5.538 1.43-14.29-4.11-16.97-10.54-1.786-4.108-1.607-6.25.715-11.253 5-10.36 15.54-12.503 24.293-5zm-59.125 18.04c2.68 1.61 13.933 12.326 25.007 23.937 14.47 15.005 20.007 21.97 20.007 25.186 0 6.43-9.826 19.47-13.756 18.04-1.965-.714-2.5-.535-1.607.894.893 1.43-.536 2.143-4.287 2.143-3.216 0-5.18-.714-4.466-1.786.536-1.07.357-1.785-.536-1.785-1.608 0-3.93 5.18-4.644 10.003-.18 1.786-12.325 13.218-14.112 13.218-.535 0 .18-3.75 1.787-8.217 2.678-7.86 2.678-8.218-1.073-12.147-7.68-8.04-21.078-13.933-33.582-14.47-6.43-.356-16.97-1.607-23.578-2.68-11.075-1.963-12.504-1.785-24.115 2.502-14.29 5.538-17.148 7.324-17.148 11.968 0 3.215 61.09 66.27 69.128 71.45 3.037 1.787 3.75 3.573 3.037 6.43-1.073 3.93-6.074 5.896-6.074 2.323 0-.893-1.072-1.25-2.323-.893-1.25.536-7.323-4.466-13.754-11.075l-11.61-12.146 12.502 11.61c10.54 9.825 10.003 8.932-3.572-5-15.362-15.72-22.328-21.793-13.218-11.612 2.322 2.858.535 1.43-4.11-2.858-4.643-4.287-8.037-8.395-7.68-9.11.893-1.43-4.108-6.43-7.145-7.502-.893-.357-1.607-1.072-1.43-1.786.18-.536-2.142-3.394-5.358-6.252-10.897-9.825-17.327-18.4-17.327-23.58 0-7.858 11.968-16.79 29.83-22.148 4.644-1.43 14.648-5.18 21.97-8.396 7.325-3.036 16.792-6.788 20.9-8.395 7.503-2.68 7.68-2.68 6.61-9.646-1.072-6.43-.536-7.502 6.073-14.112 7.68-7.86 12.325-8.752 19.65-4.108zm51.087 17.685c3.75 3.574 3.572 4.824-.893 8.932-2.68 2.5-4.288 2.858-6.61 1.43-3.93-2.5-4.823-7.324-2.144-10.54 2.858-3.393 6.252-3.393 9.646.18zm224.71 35.548c.36 14.11 0 25.186-.713 24.65-.894-.357-1.43.357-1.43 1.608 0 1.43-1.608 2.5-3.394 2.5-1.965 0-3.037-.714-2.68-1.43.536-.713.358-1.428-.535-1.428-.714 0-1.428-11.968-1.428-26.615 0-14.647.536-26.258 1.43-25.722.713.358 1.25-.714 1.25-2.32 0-2.86.178-2.86 3.393.177 3.215 2.68 3.572 5.895 4.108 28.58zm-18.754-2.323c-.536 1.43-1.072.894-1.072-1.07-.18-1.966.357-3.038.893-2.323.535.535.713 2.143.178 3.393zm-303.13 8.575c4.824 2.68 6.253 11.61 2.68 17.148-4.644 7.145-10.896 8.574-18.04 4.108-15.005-9.11-.358-29.652 15.36-21.256zm33.762 4.287c7.86 4.108 11.432 15.004 7.323 22.685-2.143 3.93-10.717 8.753-15.897 8.753-10.36 0-19.65-16.97-13.755-25.187 5.717-8.395 13.934-10.538 22.33-6.25zm72.164 7.68c-1.25.358-3.75.358-5.358 0-1.787-.535-.715-.893 2.143-.893 3.036 0 4.286.358 3.214.893zm35.19 1.25c5.36 1.43 12.325 3.395 15.183 4.467 35.904 13.575 60.376 46.8 62.52 84.668.714 11.432.356 12.504-4.11 16.79-2.68 2.323-3.93 3.93-2.857 3.395 1.07-.536 1.965.357 1.965 1.965 0 2.143-.894 1.965-3.394-1.25-1.786-2.144-3.215-5.538-3.215-7.324 0-3.037-1.607-3.394-18.04-3.394h-18.22l1.07 8.93c.716 6.253.537 8.754-.892 7.86-1.25-.714-1.43.537-.715 3.93.715 2.86 0 8.753-1.607 13.22-2.32 7.144-2.5 7.323-1.607 1.785.715-5.538.357-5.36-2.858 2.68-4.108 10.36-4.108 10.36-1.786 8.93 1.07-.536 1.785-.357 1.785.536 0 1.07 1.25 1.607 2.858 1.43 1.608 0 3.394 1.07 3.75 2.5.716 2.322.537 2.322-1.07 0-1.608-2.323-1.965-2.323-1.965.357 0 1.786-1.25 3.215-2.858 3.215-1.43 0-2.144-.893-1.608-1.786.715-1.072-.714-.893-3.394.178-2.5 1.25-4.108 2.858-3.572 3.573.536.893 0 1.608-1.072 1.608s-1.43.715-.893 1.787c1.073 1.786-3.572 9.824-5.894 9.824-.714 0-1.072 1.073-1.072 2.145.18 1.25-.357 1.786-1.25 1.43-1.43-.894-6.252 6.072-5.716 8.216.18.536-2.5 3.752-6.252 7.146-3.573 3.393-5.716 4.822-4.823 3.393 1.072-1.787.536-1.43-1.25.357-2.858 3.215-13.22 4.644-11.254 1.607.535-1.07-1.072-1.43-3.573-.893-2.5.358-4.466 0-4.466-1.07 0-1.072-2.5-1.43-6.25-.715-3.752.536-6.253.18-6.253-.893 0-1.072-1.25-1.25-3.036-.715-2.143.893-2.5.536-1.428-1.25 1.07-1.786.714-2.144-1.43-1.25-3.93 1.43-8.752-.358-7.144-2.858.714-1.073 0-1.43-1.965-.716-1.608.715-2.68.536-2.144-.357.714-.893-3.216-4.11-8.396-6.967-5.18-3.036-13.397-9.645-18.4-15.004-8.93-9.825-20.362-29.116-20.362-34.296 0-1.608-.893-2.858-1.965-2.858s-1.43-1.608-.714-3.573c.535-1.966.357-3.573-.715-3.573-1.965 0-2.143-40.55 0-44.657.715-1.43 2.68-6.788 4.287-11.61 3.037-8.575 14.112-27.152 17.863-29.83 1.07-.716 1.786-2.145 1.786-3.216 0-.894.893-1.787 1.786-1.965 2.858-.18 8.038-5.54 6.967-7.146-.536-.894.178-1.072 1.607-.536 1.43.536 3.573-.536 5.002-2.322 2.322-3.037 2.322-3.037-.893-.536-2.144 1.607-3.037 1.786-2.144.357 1.785-3.037 11.074-7.68 12.503-6.252.536.715 1.072.18 1.072-1.072 0-1.25.893-1.607 1.786-1.07 1.073.534 1.787.177 1.787-.895 0-1.25 1.25-1.786 2.68-1.07 1.43.535 2.68.356 2.68-.537 0-.892 4.465-2.143 10.18-2.857 5.538-.715 11.79-1.965 13.755-2.68 5.537-2.322 18.577-1.965 29.652.715zm178.626 14.648c0 1.25.893 2.858 2.143 3.573 1.25.893 1.43.536.536-1.072-.894-1.43-.715-1.965.535-1.072 1.072.715 1.43 2.5.893 4.11-.714 1.963-.357 2.5.893 1.606 1.252-.714 2.323.357 2.68 2.858 1.43 8.038 1.072 15.54-.892 16.79-1.25.894-1.43.358-.536-1.25.893-1.428-.18-.892-2.322.894-3.394 2.858-5.18 3.215-10.54 1.786-6.43-1.608-6.61-1.786-6.787-10.182 0-4.644.536-8.395 1.43-8.395.713 0 .892-.714.356-1.785-1.25-2.144 3.393-9.467 5-7.68.715.535 1.25.356 1.25-.716 0-.894 1.25-1.787 2.68-1.787 1.43 0 2.68 1.072 2.68 2.322zM103.603 199.74c1.786 2.144 1.786 3.216 0 5.36-3.037 3.572-7.145 3.393-10.003-.358-4.287-6.073 5.18-10.896 10.003-5.002zm307.773 20.007c-1.25.357-3.75.357-5.36 0-1.785-.536-.714-.894 2.144-.894 3.037 0 4.287.358 3.216.894zm-64.663 49.122c8.93 3.035 17.327 10.002 22.328 18.576 9.647 16.612 9.468 26.972-.713 37.51-3.573 3.752-6.61 7.86-6.967 9.29-.178 1.43-1.607 3.93-3.036 5.537-2.5 2.322-2.858 2.322-3.037.18 0-1.43-.714-.894-1.786 1.428-.892 2.323-2.143 3.752-3.036 3.216-1.607-1.072-24.472 23.4-24.472 26.437-.178 1.07-1.07 1.786-2.322 1.43-1.25-.18-1.965.177-1.965.892.536 3.215-.178 6.43-1.25 5.36-.714-.537-2.5.356-4.108 1.964-1.787 2.142-2.322 2.142-1.072.356.893-1.43-1.786.536-5.895 4.287-3.93 3.93-6.966 7.68-6.43 8.574 1.607 2.68-8.217 10.717-11.968 9.824-2.144-.535-3.037-.177-2.322.894.893 1.25-.358 1.608-3.573.715-2.858-.716-4.644-.358-4.644.892 0 1.072-1.072 1.608-2.5 1.072-1.43-.536-8.396.893-15.54 3.215-7.325 2.32-11.612 4.465-9.647 4.643 3.036.18 2.858.358-.893 1.43-5.538 1.607-14.112-.537-18.22-4.824-3.93-3.752-6.788-19.65-4.644-24.65 1.25-2.86 1.428-2.68.713.892-.536 2.322-.18 3.573.536 2.68 1.607-1.787 5.715-15.898 6.072-20.9.18-1.607.893-3.036 1.608-3.036.893 0 .893-2.144.357-4.645-.893-3.214-.536-4.464.715-3.57 1.07.713 1.43-.358.714-2.86-.536-2.32-.18-3.393.893-2.68 1.07.716 2.5 0 3.036-1.606.714-1.786.357-2.322-1.072-1.43-4.466 2.68 3.394-6.25 11.79-13.396 12.325-10.718 29.65-28.402 29.65-30.367 0-1.07.894-2.32 2.145-3.035 1.25-.893 1.428-.536.535 1.072-.715 1.25 6.43-5.716 15.897-15.184 9.468-9.467 17.15-18.04 17.15-18.755 0-.893 1.428-1.072 3.392-.536 1.787.536 3.93 0 4.466-1.072 1.608-2.5 11.432-2.5 19.113.18zm-81.096 12.502c-.536 1.43-1.072.894-1.072-1.07-.18-1.966.357-3.038.893-2.323.536.534.715 2.142.18 3.392z"/><path d="M179.876 85.956c-7.323 8.038.536 21.077 9.825 16.255 7.682-4.108 8.932-10.18 3.216-15.897-4.466-4.466-9.288-4.644-13.04-.357zM76.81 165.8c-3.573 4.288.535 11.612 6.25 11.612 3.216 0 4.645-1.25 5.538-4.466.536-2.5.715-5.716 0-7.145-1.25-3.57-8.93-3.392-11.79 0zM110.39 170.446c-5.18 3.036-4.286 13.397 1.43 17.148 4.108 2.68 5.18 2.68 9.288.357 5.716-3.214 7.86-8.93 5.002-14.29-2.322-4.822-10.54-6.43-15.72-3.214zM192.38 184.736c-8.574 1.965-23.578 9.646-32.152 16.255l-6.61 5.36 4.287 3.393c3.573 2.858 19.47 10.54 21.793 10.54.357 0 .714-1.072.714-2.323 0-1.25 3.75-8.217 8.217-15.54 8.752-14.29 11.788-19.828 11.074-19.47-.357.178-3.573.893-7.324 1.786zM202.205 189.38c-2.858 3.75-8.217 12.504-11.79 19.65l-6.43 12.86 6.788 1.786c3.572.893 10.003 2.144 14.29 2.858l7.502 1.25V205.28c0-25.544-1.25-27.33-10.36-15.898zM217.924 205.1v22.327h5.358c7.503 0 23.043-3.572 24.294-5.537 1.25-2.143-10.182-23.043-17.506-32.51-2.858-3.572-6.787-6.61-8.752-6.61-3.216 0-3.394 1.43-3.394 22.33zM234 185.986c0 .715 2.322 4.644 5.18 8.574 2.858 3.75 6.967 11.254 9.11 16.255 2.144 5.18 4.823 9.467 5.716 9.467 3.037 0 19.113-9.645 20.185-11.968 1.073-3.215-16.61-16.076-27.507-20.363C236.68 184.2 234 183.844 234 185.987zM145.223 216.353c-8.93 11.968-16.612 33.58-16.612 46.264 0 1.786 4.824 2.322 20.543 2.322h20.542v-5.717c0-3.037 1.786-11.968 3.75-19.65 2.144-7.86 3.573-14.29 3.216-14.468-5-2.858-26.436-13.754-26.97-13.754-.36 0-2.502 2.323-4.467 5.003zM266.33 219.39c-5.18 3.393-9.823 6.25-10.18 6.608-.358.358 1.07 5.716 2.858 11.968 1.965 6.074 3.572 13.576 3.572 16.255 0 10.362.715 10.72 20.006 10.72h17.684l-1.07-6.79c-3.574-20.898-14.827-45.37-21.08-44.834-1.07.18-6.43 2.858-11.79 6.073zM181.484 228.856c-2.143 3.573-6.43 22.865-6.43 29.295v6.79h37.51v-31.797l-11.075-1.964c-6.252-1.073-13.04-2.502-15.004-3.038-2.144-.536-4.287-.18-5.002.714zM240.252 230.107c-4.823 1.25-11.968 2.5-15.54 2.5l-6.788.18v32.152h39.297v-6.432c0-7.68-5.18-31.08-6.786-30.902-.715.18-5.18 1.25-10.182 2.5zM129.325 279.586c2.144 14.47 8.574 30.01 16.434 40.906 4.464 5.894 8.75 10.538 9.466 10.18.893-.356 6.43-3.393 12.504-6.787 7.323-4.287 10.717-7.145 10.18-8.93-5-16.613-8.215-30.546-8.215-36.083v-6.788h-41.62l1.25 7.502zM175.59 284.052c1.07 11.968 5.537 28.223 8.395 30.01.714.535 7.502-.18 15.004-1.25l13.575-2.323V272.083H174.52l1.07 11.968zM217.924 291.376v19.47l14.29 3.036c7.86 1.608 15.004 2.5 15.898 1.965 2.858-1.607 7.502-17.862 8.93-31.08l1.25-12.683h-40.368v19.292zM259.186 298.163c0 1.965.536 2.5 1.072 1.072.536-1.25.357-2.858-.18-3.394-.534-.713-1.07.358-.892 2.323zM193.452 318.884l-7.68 1.608 2.857 5.716c5.358 10.36 18.755 28.044 21.434 28.044 1.965 0 2.5-3.573 2.5-18.756V316.74l-5.715.18c-3.216.178-9.29.892-13.398 1.964zM217.924 335.675c0 18.577 0 18.756 4.108 18.22 5.36-.715 23.58-27.687 20.9-30.903-1.43-1.786-18.22-6.252-23.58-6.252-.714 0-1.428 8.574-1.428 18.935zM171.302 327.1c-5.358 2.68-9.645 6.074-9.645 7.503 0 5.36 32.51 20.9 36.082 17.327.535-.715-.537-3.394-2.323-6.074-1.786-2.68-5.716-9.288-8.93-14.468l-5.717-9.29-9.468 5.003zM226.676 357.29c-2.322 2.857-2.143 3.035.715.713 2.86-2.322 3.752-3.75 2.323-3.75-.357 0-1.786 1.428-3.037 3.036zM284.373 320.67c-11.075 10.896-20.007 20.542-20.007 21.435 0 .715 1.965 1.43 4.288 1.43 2.858 0 10.003-5.538 23.22-18.22 10.54-9.825 19.828-19.47 20.9-21.436 1.43-2.68 1.072-3.216-3.394-3.216-4.108 0-8.93 3.93-25.007 20.006zM308.13 320.85c-8.753 8.93-18.22 18.933-20.9 21.97l-5 5.716 6.43 6.43 6.252 6.252 22.685-21.97c21.97-21.436 22.507-22.33 20.185-26.616-2.144-3.93-8.753-8.395-12.325-8.395-.715 0-8.396 7.502-17.327 16.612zM320.276 349.25c-19.47 19.65-21.613 22.507-20.72 26.794.536 2.858 1.43 5.002 2.143 5.002.714 0 10.717-9.467 22.15-21.078 17.862-18.04 20.898-22.15 20.898-26.794 0-3.215-.536-5.716-1.43-5.716-.713 0-11.074 9.824-23.042 21.792zM251.148 352.108c-.536.893-2.5 6.61-4.465 12.683l-3.394 10.897 6.608 1.786c7.86 2.144 13.218 7.324 17.148 16.434 2.322 6.073 3.215 6.61 6.966 5 2.322-.713 7.503-2.5 11.61-3.57l7.325-1.966-1.072-8.394c-.536-4.645-1.25-10.182-1.786-12.326-.895-5.18-8.933-14.29-15.006-17.505-6.43-3.394-22.507-5.36-23.936-3.037z"/></g></svg>