<svg xmlns="http://www.w3.org/2000/svg" xmlns:xlink="http://www.w3.org/1999/xlink" viewBox="0 0 288 288"><defs><style>.a{fill:url(#a);}.b{fill:#c8262d;}.c{fill:#231f20;}.d{fill:url(#b);}</style><linearGradient id="a" x1="41.81" y1="221.48" x2="173.25" y2="173.64" gradientUnits="userSpaceOnUse"><stop offset="0.75" stop-color="#c8262d"/><stop offset="0.77" stop-color="#a9252b"/><stop offset="0.83" stop-color="#612225"/><stop offset="0.88" stop-color="#342021"/><stop offset="0.9" stop-color="#231f20"/></linearGradient><linearGradient id="b" x1="78.94" y1="317.25" x2="375.94" y2="317.25" gradientTransform="translate(-150.24 -84.58) rotate(-16.22)" gradientUnits="userSpaceOnUse"><stop offset="0.52" stop-color="#231f20"/><stop offset="0.55" stop-color="#432023"/><stop offset="0.59" stop-color="#6c2226"/><stop offset="0.63" stop-color="#8d2328"/><stop offset="0.68" stop-color="#a7252a"/><stop offset="0.72" stop-color="#b9252c"/><stop offset="0.77" stop-color="#c4262d"/><stop offset="0.82" stop-color="#c8262d"/></linearGradient></defs><title>star</title><path class="a" d="M208.73,271.25c-1.45-4.55-12.77-39.58-82-89.07-46.72-33.41-78.09-47-92.31-52.07-16.16-5.78-28.3-6.58-28.3-6.58S61.31,147,123.58,194.07C185.16,240.65,210.18,275.79,208.73,271.25Z"/><path class="b" d="M5.05,123.66s4.37,2.28,14.82,3.16c5.54.47,12.78.17,22-.25,20.32-.92,50.52-.49,85.3-8.12,78.28-17.15,156.13-58.7,156.13-58.7s-80.19,26.77-153.76,43.64S5.05,123.66,5.05,123.66Z"/><path class="c" d="M7.19,273.8s43.25-30.39,90.3-111.58C143.39,83,127.14,4.33,127.14,4.33S118.46,83,81.48,158.46,7.19,273.8,7.19,273.8Z"/><path class="c" d="M127.14,4.33s-10.81,60.26,16.77,147.58,74.27,131.76,74.27,131.76-32.12-57.79-57.27-138S127.14,4.33,127.14,4.33Z"/><path class="d" d="M283.3,59.75c-144.3,54.15-253,193.5-253,193.5S139,151.23,283.3,59.75Z"/></svg>